<mxfile host="app.diagrams.net" modified="2023-06-06T09:28:06.043Z" agent="Mozilla/5.0 (Windows NT 10.0; Win64; x64) AppleWebKit/537.36 (KHTML, like Gecko) Chrome/114.0.0.0 Safari/537.36 Edg/114.0.1823.37" etag="oPUZ1H_ofwCZyNi42EW5" version="21.3.2" type="github">
  <diagram name="第 1 页" id="_RkV5LqSwVzZbGGRcekN">
    <mxGraphModel dx="1434" dy="788" grid="1" gridSize="10" guides="1" tooltips="1" connect="1" arrows="1" fold="1" page="1" pageScale="1" pageWidth="827" pageHeight="1169" math="0" shadow="0">
      <root>
        <mxCell id="0" />
        <mxCell id="1" parent="0" />
        <mxCell id="N5S3MGfsmrJrs8R1IqP2-11" value="评标系统" style="shape=umlLifeline;perimeter=lifelinePerimeter;whiteSpace=wrap;html=1;container=1;dropTarget=0;collapsible=0;recursiveResize=0;outlineConnect=0;portConstraint=eastwest;newEdgeStyle={&quot;edgeStyle&quot;:&quot;elbowEdgeStyle&quot;,&quot;elbow&quot;:&quot;vertical&quot;,&quot;curved&quot;:0,&quot;rounded&quot;:0};" vertex="1" parent="1">
          <mxGeometry x="240" y="60" width="100" height="590" as="geometry" />
        </mxCell>
        <mxCell id="N5S3MGfsmrJrs8R1IqP2-25" value="" style="html=1;points=[];perimeter=orthogonalPerimeter;outlineConnect=0;targetShapes=umlLifeline;portConstraint=eastwest;newEdgeStyle={&quot;edgeStyle&quot;:&quot;elbowEdgeStyle&quot;,&quot;elbow&quot;:&quot;vertical&quot;,&quot;curved&quot;:0,&quot;rounded&quot;:0};" vertex="1" parent="N5S3MGfsmrJrs8R1IqP2-11">
          <mxGeometry x="45" y="70" width="10" height="390" as="geometry" />
        </mxCell>
        <mxCell id="N5S3MGfsmrJrs8R1IqP2-72" value="判断是否有生效中证书若无则流程向下走" style="html=1;align=left;spacingLeft=2;endArrow=block;rounded=0;edgeStyle=orthogonalEdgeStyle;curved=0;rounded=0;" edge="1" parent="N5S3MGfsmrJrs8R1IqP2-11">
          <mxGeometry relative="1" as="geometry">
            <mxPoint x="55" y="160" as="sourcePoint" />
            <Array as="points">
              <mxPoint x="85" y="190" />
            </Array>
            <mxPoint x="55" y="190" as="targetPoint" />
          </mxGeometry>
        </mxCell>
        <mxCell id="N5S3MGfsmrJrs8R1IqP2-12" value="手写板" style="shape=umlLifeline;perimeter=lifelinePerimeter;whiteSpace=wrap;html=1;container=1;dropTarget=0;collapsible=0;recursiveResize=0;outlineConnect=0;portConstraint=eastwest;newEdgeStyle={&quot;edgeStyle&quot;:&quot;elbowEdgeStyle&quot;,&quot;elbow&quot;:&quot;vertical&quot;,&quot;curved&quot;:0,&quot;rounded&quot;:0};" vertex="1" parent="1">
          <mxGeometry x="414" y="60" width="100" height="590" as="geometry" />
        </mxCell>
        <mxCell id="N5S3MGfsmrJrs8R1IqP2-67" value="" style="html=1;points=[];perimeter=orthogonalPerimeter;outlineConnect=0;targetShapes=umlLifeline;portConstraint=eastwest;newEdgeStyle={&quot;edgeStyle&quot;:&quot;elbowEdgeStyle&quot;,&quot;elbow&quot;:&quot;vertical&quot;,&quot;curved&quot;:0,&quot;rounded&quot;:0};" vertex="1" parent="N5S3MGfsmrJrs8R1IqP2-12">
          <mxGeometry x="45" y="240" width="10" height="70" as="geometry" />
        </mxCell>
        <mxCell id="N5S3MGfsmrJrs8R1IqP2-68" value="录入手写签章" style="html=1;align=left;spacingLeft=2;endArrow=block;rounded=0;edgeStyle=orthogonalEdgeStyle;curved=0;rounded=0;" edge="1" target="N5S3MGfsmrJrs8R1IqP2-67" parent="N5S3MGfsmrJrs8R1IqP2-12">
          <mxGeometry relative="1" as="geometry">
            <mxPoint x="56" y="250" as="sourcePoint" />
            <Array as="points">
              <mxPoint x="86" y="250" />
              <mxPoint x="86" y="280" />
            </Array>
          </mxGeometry>
        </mxCell>
        <mxCell id="N5S3MGfsmrJrs8R1IqP2-13" value="云签服务端" style="shape=umlLifeline;perimeter=lifelinePerimeter;whiteSpace=wrap;html=1;container=1;dropTarget=0;collapsible=0;recursiveResize=0;outlineConnect=0;portConstraint=eastwest;newEdgeStyle={&quot;edgeStyle&quot;:&quot;elbowEdgeStyle&quot;,&quot;elbow&quot;:&quot;vertical&quot;,&quot;curved&quot;:0,&quot;rounded&quot;:0};" vertex="1" parent="1">
          <mxGeometry x="600" y="60" width="100" height="590" as="geometry" />
        </mxCell>
        <mxCell id="N5S3MGfsmrJrs8R1IqP2-32" value="" style="html=1;points=[];perimeter=orthogonalPerimeter;outlineConnect=0;targetShapes=umlLifeline;portConstraint=eastwest;newEdgeStyle={&quot;edgeStyle&quot;:&quot;elbowEdgeStyle&quot;,&quot;elbow&quot;:&quot;vertical&quot;,&quot;curved&quot;:0,&quot;rounded&quot;:0};" vertex="1" parent="N5S3MGfsmrJrs8R1IqP2-13">
          <mxGeometry x="45" y="370" width="10" height="90" as="geometry" />
        </mxCell>
        <mxCell id="N5S3MGfsmrJrs8R1IqP2-61" value="" style="html=1;points=[];perimeter=orthogonalPerimeter;outlineConnect=0;targetShapes=umlLifeline;portConstraint=eastwest;newEdgeStyle={&quot;edgeStyle&quot;:&quot;elbowEdgeStyle&quot;,&quot;elbow&quot;:&quot;vertical&quot;,&quot;curved&quot;:0,&quot;rounded&quot;:0};" vertex="1" parent="N5S3MGfsmrJrs8R1IqP2-13">
          <mxGeometry x="45" y="80" width="10" height="60" as="geometry" />
        </mxCell>
        <mxCell id="N5S3MGfsmrJrs8R1IqP2-23" value="" style="shape=umlLifeline;perimeter=lifelinePerimeter;whiteSpace=wrap;html=1;container=1;dropTarget=0;collapsible=0;recursiveResize=0;outlineConnect=0;portConstraint=eastwest;newEdgeStyle={&quot;edgeStyle&quot;:&quot;elbowEdgeStyle&quot;,&quot;elbow&quot;:&quot;vertical&quot;,&quot;curved&quot;:0,&quot;rounded&quot;:0};participant=umlActor;" vertex="1" parent="1">
          <mxGeometry x="130" y="60" width="20" height="590" as="geometry" />
        </mxCell>
        <mxCell id="N5S3MGfsmrJrs8R1IqP2-24" value="" style="html=1;points=[];perimeter=orthogonalPerimeter;outlineConnect=0;targetShapes=umlLifeline;portConstraint=eastwest;newEdgeStyle={&quot;edgeStyle&quot;:&quot;elbowEdgeStyle&quot;,&quot;elbow&quot;:&quot;vertical&quot;,&quot;curved&quot;:0,&quot;rounded&quot;:0};" vertex="1" parent="N5S3MGfsmrJrs8R1IqP2-23">
          <mxGeometry x="5" y="70" width="10" height="390" as="geometry" />
        </mxCell>
        <mxCell id="N5S3MGfsmrJrs8R1IqP2-26" value="进行证书印章申请" style="html=1;verticalAlign=bottom;endArrow=block;edgeStyle=elbowEdgeStyle;elbow=vertical;curved=0;rounded=0;" edge="1" parent="1" target="N5S3MGfsmrJrs8R1IqP2-11">
          <mxGeometry width="80" relative="1" as="geometry">
            <mxPoint x="140" y="130" as="sourcePoint" />
            <mxPoint x="220" y="130" as="targetPoint" />
          </mxGeometry>
        </mxCell>
        <mxCell id="N5S3MGfsmrJrs8R1IqP2-35" value="申请成功" style="html=1;verticalAlign=bottom;endArrow=open;dashed=1;endSize=8;edgeStyle=elbowEdgeStyle;elbow=vertical;curved=0;rounded=0;" edge="1" parent="1" target="N5S3MGfsmrJrs8R1IqP2-24">
          <mxGeometry relative="1" as="geometry">
            <mxPoint x="280" y="520" as="sourcePoint" />
            <mxPoint x="150" y="520" as="targetPoint" />
          </mxGeometry>
        </mxCell>
        <mxCell id="N5S3MGfsmrJrs8R1IqP2-38" value="用户" style="text;html=1;align=center;verticalAlign=middle;resizable=0;points=[];autosize=1;strokeColor=none;fillColor=none;" vertex="1" parent="1">
          <mxGeometry x="115" y="90" width="50" height="30" as="geometry" />
        </mxCell>
        <mxCell id="N5S3MGfsmrJrs8R1IqP2-53" value="申请成功" style="html=1;verticalAlign=bottom;endArrow=open;dashed=1;endSize=8;edgeStyle=elbowEdgeStyle;elbow=vertical;curved=0;rounded=0;" edge="1" parent="1" target="N5S3MGfsmrJrs8R1IqP2-11">
          <mxGeometry relative="1" as="geometry">
            <mxPoint x="650" y="520" as="sourcePoint" />
            <mxPoint x="350" y="520" as="targetPoint" />
          </mxGeometry>
        </mxCell>
        <mxCell id="N5S3MGfsmrJrs8R1IqP2-62" value="调用云签服务获取证书列表接口" style="html=1;verticalAlign=bottom;endArrow=block;edgeStyle=elbowEdgeStyle;elbow=vertical;curved=0;rounded=0;" edge="1" parent="1" target="N5S3MGfsmrJrs8R1IqP2-13">
          <mxGeometry width="80" relative="1" as="geometry">
            <mxPoint x="300" y="140" as="sourcePoint" />
            <mxPoint x="380" y="140" as="targetPoint" />
          </mxGeometry>
        </mxCell>
        <mxCell id="N5S3MGfsmrJrs8R1IqP2-63" value="返回证书列表" style="html=1;verticalAlign=bottom;endArrow=open;dashed=1;endSize=8;edgeStyle=elbowEdgeStyle;elbow=vertical;curved=0;rounded=0;" edge="1" parent="1" target="N5S3MGfsmrJrs8R1IqP2-25">
          <mxGeometry x="-0.0286" y="-10" relative="1" as="geometry">
            <mxPoint x="650" y="200" as="sourcePoint" />
            <mxPoint x="300" y="200" as="targetPoint" />
            <Array as="points">
              <mxPoint x="480" y="200" />
            </Array>
            <mxPoint as="offset" />
          </mxGeometry>
        </mxCell>
        <mxCell id="N5S3MGfsmrJrs8R1IqP2-69" value="返回手写签章图片" style="html=1;verticalAlign=bottom;endArrow=open;dashed=1;endSize=8;edgeStyle=elbowEdgeStyle;elbow=vertical;curved=0;rounded=0;" edge="1" parent="1" target="N5S3MGfsmrJrs8R1IqP2-25">
          <mxGeometry relative="1" as="geometry">
            <mxPoint x="454" y="370" as="sourcePoint" />
            <mxPoint x="300" y="370" as="targetPoint" />
          </mxGeometry>
        </mxCell>
        <mxCell id="N5S3MGfsmrJrs8R1IqP2-70" value="唤起手写板进行手写签章采集" style="html=1;verticalAlign=bottom;endArrow=block;edgeStyle=elbowEdgeStyle;elbow=vertical;curved=0;rounded=0;" edge="1" parent="1" source="N5S3MGfsmrJrs8R1IqP2-25">
          <mxGeometry width="80" relative="1" as="geometry">
            <mxPoint x="380" y="300" as="sourcePoint" />
            <mxPoint x="460" y="300" as="targetPoint" />
          </mxGeometry>
        </mxCell>
        <mxCell id="N5S3MGfsmrJrs8R1IqP2-73" value="调用云签服务证书印章申请接口" style="html=1;verticalAlign=bottom;endArrow=block;edgeStyle=elbowEdgeStyle;elbow=vertical;curved=0;rounded=0;" edge="1" parent="1" source="N5S3MGfsmrJrs8R1IqP2-25">
          <mxGeometry x="-0.0704" width="80" relative="1" as="geometry">
            <mxPoint x="570" y="430" as="sourcePoint" />
            <mxPoint x="650" y="430" as="targetPoint" />
            <mxPoint as="offset" />
          </mxGeometry>
        </mxCell>
      </root>
    </mxGraphModel>
  </diagram>
</mxfile>
